<?xml version="1.0" standalone="no"?>
<!DOCTYPE svg PUBLIC "-//W3C//DTD SVG 20010904//EN"
 "http://www.w3.org/TR/2001/REC-SVG-20010904/DTD/svg10.dtd">
<svg version="1.0" xmlns="http://www.w3.org/2000/svg"
 width="700.000000pt" height="700.000000pt" viewBox="0 0 700.000000 700.000000"
 preserveAspectRatio="xMidYMid meet">
<metadata>
Created by potrace 1.14, written by Peter Selinger 2001-2017
</metadata>
<g transform="translate(0.000000,700.000000) scale(0.100000,-0.100000)"
fill="#000000" stroke="none">
<path d="M2499 6836 c-2 -2 -41 -7 -86 -10 -46 -4 -91 -9 -100 -10 -10 -2 -52
-9 -93 -16 -615 -100 -1171 -432 -1526 -909 -35 -47 -67 -90 -72 -96 -45 -56
-262 -453 -262 -480 0 -3 -8 -25 -19 -48 -84 -191 -177 -535 -215 -797 -20
-141 -26 -206 -41 -430 -6 -80 -6 -985 0 -1095 6 -142 19 -297 30 -365 2 -14
7 -50 10 -80 3 -30 8 -62 10 -70 2 -8 7 -31 10 -50 13 -81 17 -99 35 -180 54
-242 145 -500 249 -710 255 -510 631 -895 1095 -1120 215 -104 430 -172 650
-206 21 -3 48 -7 59 -10 132 -25 700 -25 832 0 11 2 43 7 70 10 49 6 74 11
125 22 14 3 41 8 60 11 79 12 293 77 413 125 269 107 491 253 692 453 155 154
172 175 274 327 144 214 259 478 326 750 19 78 39 156 43 172 l7 29 15 -29
c16 -30 80 -150 147 -274 22 -41 62 -115 88 -165 26 -49 73 -137 105 -195 31
-58 77 -143 102 -190 60 -111 183 -342 218 -405 15 -27 51 -95 80 -150 29 -55
65 -122 80 -150 15 -27 51 -95 80 -150 29 -55 57 -106 63 -113 14 -18 926 -18
928 1 3 31 -6 57 -41 117 -20 36 -51 90 -67 120 -17 30 -39 71 -50 90 -11 20
-39 71 -63 115 -23 44 -59 109 -80 145 -20 36 -51 90 -67 120 -17 30 -79 143
-138 250 -59 107 -119 215 -133 240 -35 65 -93 169 -117 212 -11 20 -111 200
-221 400 -111 200 -213 383 -226 408 -14 25 -40 72 -58 105 -18 33 -40 74 -50
90 -18 31 -45 79 -108 195 -19 36 -52 96 -74 133 -21 38 -38 70 -38 72 0 1 21
10 48 20 89 33 284 136 385 202 172 113 319 248 435 398 34 44 66 85 70 90 22
27 106 174 137 236 59 122 119 313 141 454 3 17 7 41 10 55 30 165 22 515 -17
725 -6 33 -13 73 -16 90 -26 159 -135 427 -240 589 -271 420 -780 713 -1388
801 -259 38 -258 37 -930 42 -571 3 -627 5 -710 23 -49 11 -107 23 -129 26
-21 3 -47 7 -57 9 -10 2 -49 7 -86 10 -37 4 -72 10 -77 13 -10 6 -521 13 -527
8z m-259 -783 c0 -28 1 -5115 0 -5146 0 -27 -2 -28 -32 -22 -128 28 -303 107
-435 195 -292 197 -521 524 -667 952 -56 164 -114 435 -131 608 -4 36 -9 76
-11 90 -25 149 -24 1298 0 1495 4 31 16 132 21 175 5 46 26 163 30 169 2 4 6
26 10 51 4 24 18 86 31 139 170 653 552 1110 1074 1282 101 33 110 34 110 12z
m1120 -29 c290 -107 520 -325 673 -636 80 -161 159 -429 197 -665 l12 -73 434
0 434 0 -4 28 c-3 15 -8 50 -11 79 -9 81 -44 270 -66 358 -25 96 -98 326 -109
340 -4 6 -11 21 -15 35 -29 94 -162 333 -260 465 -30 41 -52 76 -48 76 20 3
163 -11 208 -21 22 -5 56 -11 75 -14 44 -7 179 -48 247 -75 378 -150 616 -455
685 -876 16 -102 18 -371 2 -470 -39 -249 -141 -453 -313 -626 -160 -159 -393
-285 -621 -335 -19 -4 -37 -8 -40 -9 -36 -8 -105 -19 -210 -31 -90 -11 -1511
-10 -1518 1 -3 5 -6 561 -6 1235 -1 1167 0 1225 17 1230 38 11 193 0 237 -16z
m1281 -3171 c8 -8 66 -114 149 -268 20 -38 62 -118 93 -176 32 -58 57 -109 57
-113 0 -3 -157 -6 -349 -6 l-349 0 -18 -97 c-10 -54 -19 -103 -20 -109 -36
-194 -144 -485 -241 -649 -101 -171 -270 -331 -445 -421 -109 -56 -331 -130
-387 -129 l-25 0 0 965 c-1 531 1 975 3 987 2 12 10 23 19 25 35 7 1506 -3
1513 -9z"/>
</g>
</svg>
